<?xml version="1.0" encoding="utf-8"?>
<!-- Generator: Adobe Illustrator 22.1.0, SVG Export Plug-In . SVG Version: 6.00 Build 0)  -->
<svg version="1.1" id="Layer_1" xmlns="http://www.w3.org/2000/svg" xmlns:xlink="http://www.w3.org/1999/xlink" x="0px" y="0px"
	 viewBox="0 0 607.5 612.1" style="enable-background:new 0 0 607.5 612.1;" xml:space="preserve">
<style type="text/css">
	.st0{opacity:0.25;fill:#2781C2;}
	.st1{fill:#333333;}
	.st2{fill:#2781C2;}
</style>
<ellipse class="st0" cx="303.7" cy="383" rx="114.4" ry="7.9"/>
<g>
	<path class="st1" d="M178.1,438.4c1.5,0,3,0.1,4.4,0.2c1.5,0.2,2.9,0.4,4.3,0.8c1.4,0.4,2.6,0.8,3.8,1.3c1.2,0.5,2.2,1.2,3.1,1.9
		c0.9,0.7,1.6,1.6,2.1,2.6c0.5,1,0.7,2.1,0.7,3.3l-6.8,1.1c0-0.8-0.3-1.6-1-2.3c-0.7-0.7-1.5-1.3-2.6-1.7c-1.1-0.5-2.3-0.8-3.7-1.1
		c-1.4-0.2-2.8-0.4-4.3-0.4c-1.4,0-2.8,0.1-4.2,0.3s-2.6,0.6-3.7,1c-1.1,0.5-2,1-2.7,1.7c-0.7,0.7-1,1.5-1,2.4V462
		c0,0.9,0.3,1.7,1,2.4c0.7,0.7,1.6,1.2,2.7,1.7c1.1,0.4,2.3,0.8,3.7,1c1.4,0.2,2.8,0.3,4.2,0.3c1.5,0,2.9-0.1,4.3-0.4
		c1.4-0.2,2.6-0.6,3.7-1c1.1-0.4,2-1,2.6-1.7c0.7-0.7,1-1.4,1-2.3l6.8,1.9c0,1.1-0.2,2-0.7,2.9c-0.5,0.9-1.2,1.7-2.1,2.4
		c-0.9,0.7-1.9,1.3-3.1,1.8c-1.2,0.5-2.5,0.9-3.8,1.3c-1.4,0.3-2.8,0.6-4.3,0.8s-3,0.3-4.4,0.3s-3-0.1-4.4-0.3s-2.9-0.4-4.3-0.8
		c-1.4-0.3-2.6-0.8-3.8-1.3c-1.2-0.5-2.2-1.1-3.1-1.8c-0.9-0.7-1.6-1.5-2.1-2.4c-0.5-0.9-0.7-1.9-0.7-2.9v-15.3
		c0-1.2,0.2-2.3,0.7-3.3c0.5-1,1.2-1.8,2.1-2.6c0.9-0.8,1.9-1.4,3.1-1.9c1.2-0.5,2.5-1,3.8-1.3c1.4-0.4,2.8-0.6,4.3-0.8
		C175.2,438.5,176.7,438.4,178.1,438.4z"/>
	<path class="st1" d="M220.8,438.4c1.5,0,3,0.1,4.5,0.2c1.5,0.2,2.9,0.4,4.3,0.8c1.4,0.4,2.6,0.8,3.8,1.3s2.2,1.2,3.1,1.9
		c0.9,0.7,1.6,1.6,2.1,2.6c0.5,1,0.7,2.1,0.7,3.3v15.3c0,1.1-0.2,2-0.7,2.9c-0.5,0.9-1.2,1.7-2.1,2.4c-0.9,0.7-1.9,1.3-3.1,1.8
		s-2.5,0.9-3.8,1.3c-1.4,0.3-2.8,0.6-4.3,0.8c-1.5,0.2-3,0.3-4.4,0.3c-1.5,0-3-0.1-4.4-0.3s-2.9-0.4-4.3-0.8
		c-1.4-0.3-2.6-0.8-3.8-1.3s-2.2-1.1-3.1-1.8c-0.9-0.7-1.6-1.5-2.1-2.4c-0.5-0.9-0.7-1.9-0.7-2.9v-15.3c0-1.2,0.2-2.3,0.7-3.3
		c0.5-1,1.2-1.8,2.1-2.6c0.9-0.8,1.9-1.4,3.1-1.9s2.5-1,3.8-1.3c1.4-0.4,2.8-0.6,4.3-0.8C217.8,438.5,219.3,438.4,220.8,438.4z
		 M209.1,462c0,0.9,0.3,1.7,1,2.4c0.7,0.7,1.6,1.2,2.7,1.7c1.1,0.4,2.3,0.8,3.7,1c1.4,0.2,2.8,0.3,4.2,0.3c1.5,0,2.9-0.1,4.3-0.4
		c1.4-0.2,2.6-0.6,3.7-1c1.1-0.4,1.9-1,2.6-1.7c0.6-0.7,1-1.4,1-2.3v-12.3c0-0.8-0.3-1.6-1-2.3c-0.6-0.7-1.5-1.3-2.6-1.7
		c-1.1-0.5-2.3-0.8-3.7-1.1c-1.4-0.2-2.8-0.4-4.3-0.4c-1.4,0-2.8,0.1-4.2,0.3c-1.4,0.2-2.6,0.6-3.7,1c-1.1,0.5-2,1-2.7,1.7
		c-0.7,0.7-1,1.5-1,2.4V462z"/>
	<path class="st1" d="M269.2,439c0,2-0.1,4.2-0.2,6.4c-0.1,2.2-0.4,4.5-0.7,6.9H262c0.1-0.7,0.2-1.4,0.3-2.2
		c0.1-0.7,0.2-1.4,0.4-2.3s0.2-1.8,0.2-2.8c-1.6,0-2.9,0.2-3.9,0.5c-1,0.3-1.9,0.6-2.5,1c-0.7,0.4-1.2,0.8-1.7,1.2
		c-0.4,0.4-0.8,0.7-1.1,0.9v24.3h-6.8v-24.4c-0.1-0.6-0.2-1.2-0.5-1.6c-0.3-0.4-0.5-0.8-0.8-1.1c-0.3-0.3-0.7-0.6-1.1-0.8l2.8-5.8
		c0.7,0.3,1.3,0.6,1.9,1c0.5,0.4,1.1,0.9,1.7,1.4c0.6,0.6,1.2,1.3,1.6,2.1c0.9-0.7,1.7-1.3,2.5-1.8c0.8-0.5,1.5-0.9,2.2-1.2
		c0.7-0.3,1.5-0.6,2.2-0.8c0.8-0.2,1.6-0.3,2.5-0.5c0.9-0.1,2-0.2,3.1-0.3C266.4,439.1,267.7,439,269.2,439z"/>
	<path class="st1" d="M299.8,439c0,2-0.1,4.2-0.2,6.4c-0.1,2.2-0.4,4.5-0.7,6.9h-6.3c0.1-0.7,0.2-1.4,0.3-2.2
		c0.1-0.7,0.2-1.4,0.4-2.3s0.2-1.8,0.2-2.8c-1.6,0-2.9,0.2-3.9,0.5c-1,0.3-1.9,0.6-2.5,1c-0.7,0.4-1.2,0.8-1.7,1.2
		c-0.4,0.4-0.8,0.7-1.1,0.9v24.3h-6.8v-24.4c-0.1-0.6-0.2-1.2-0.5-1.6c-0.3-0.4-0.5-0.8-0.8-1.1c-0.3-0.3-0.7-0.6-1.1-0.8l2.8-5.8
		c0.7,0.3,1.3,0.6,1.9,1c0.5,0.4,1.1,0.9,1.7,1.4c0.6,0.6,1.2,1.3,1.6,2.1c0.9-0.7,1.7-1.3,2.5-1.8c0.8-0.5,1.5-0.9,2.2-1.2
		c0.7-0.3,1.5-0.6,2.2-0.8c0.8-0.2,1.6-0.3,2.5-0.5c0.9-0.1,2-0.2,3.1-0.3C296.9,439.1,298.3,439,299.8,439z"/>
	<path class="st1" d="M321.8,432.9c-0.7,0-1.4,0.1-2,0.2c-0.6,0.2-1.1,0.4-1.6,0.7c-0.5,0.3-0.8,0.7-1.1,1.2c-0.2,0.5-0.4,1-0.4,1.7
		v1.8h6.9v5h-6.9v29.2h-6.9v-29.2h-4.3v-5h4.3v-1c0-1.4,0.3-2.7,0.8-3.9s1.3-2.2,2.3-3.1s2.3-1.6,3.7-2.1c1.5-0.5,3.2-0.7,5.1-0.7
		V432.9z"/>
	<path class="st1" d="M336.9,462c0,0.9,0.3,1.7,0.9,2.3c0.6,0.6,1.4,1.1,2.4,1.5c1,0.4,2.2,0.7,3.5,0.8c1.3,0.2,2.7,0.3,4.1,0.3
		c1.5,0,2.9-0.1,4.2-0.3c1.3-0.2,2.5-0.5,3.4-0.9c1-0.4,1.7-0.9,2.3-1.5c0.6-0.6,0.9-1.4,0.9-2.2v-23l7.1,0.6v24.3
		c0,1.1-0.2,2-0.7,2.9c-0.5,0.9-1.1,1.7-2,2.4c-0.8,0.7-1.8,1.3-3,1.8s-2.4,0.9-3.7,1.3c-1.3,0.3-2.7,0.6-4.2,0.8s-2.9,0.3-4.4,0.3
		c-1.5,0-3-0.1-4.4-0.3s-2.8-0.4-4.2-0.8c-1.3-0.3-2.6-0.8-3.7-1.3s-2.1-1.1-3-1.8c-0.8-0.7-1.5-1.5-2-2.4c-0.5-0.9-0.7-1.9-0.7-2.9
		v-24.3l7-0.6V462z"/>
	<path class="st1" d="M374.8,448.3c-0.1-0.6-0.2-1.2-0.5-1.6c-0.3-0.4-0.5-0.8-0.8-1.1c-0.3-0.3-0.7-0.6-1.1-0.8l3-5.8
		c0.7,0.3,1.3,0.6,2,1c0.5,0.4,1.1,0.9,1.7,1.4c0.6,0.6,1.1,1.3,1.6,2.1c0.9-0.6,1.8-1.2,2.7-1.8c0.9-0.6,1.9-1,2.9-1.5
		s2.1-0.7,3.2-1c1.1-0.2,2.3-0.4,3.6-0.4c2.7,0,5.1,0.3,7,0.8s3.6,1.3,4.8,2.2c1.3,1,2.2,2.2,2.8,3.7c0.6,1.5,0.9,3.2,0.9,5.2v21.8
		h-7v-20c0-1.1-0.1-2.1-0.4-2.9s-0.6-1.5-1.1-2c-0.5-0.6-1-1-1.6-1.4c-0.6-0.4-1.2-0.6-1.9-0.8c-0.6-0.2-1.3-0.3-2-0.4
		c-0.7-0.1-1.3-0.1-1.9-0.1c-1.1,0-2.2,0.1-3.2,0.3c-1,0.2-2,0.4-2.9,0.7c-0.9,0.3-1.8,0.7-2.6,1.1c-0.8,0.4-1.6,0.8-2.3,1.3v24.2
		h-7V448.3z"/>
	<path class="st1" d="M434.6,438.4c1.5,0,3,0.1,4.4,0.2c1.5,0.2,2.9,0.4,4.3,0.8c1.4,0.4,2.6,0.8,3.8,1.3c1.2,0.5,2.2,1.2,3.1,1.9
		c0.9,0.7,1.6,1.6,2.1,2.6c0.5,1,0.7,2.1,0.7,3.3l-6.8,1.1c0-0.8-0.3-1.6-1-2.3c-0.7-0.7-1.5-1.3-2.6-1.7c-1.1-0.5-2.3-0.8-3.7-1.1
		c-1.4-0.2-2.8-0.4-4.3-0.4c-1.4,0-2.8,0.1-4.2,0.3s-2.6,0.6-3.7,1c-1.1,0.5-2,1-2.7,1.7c-0.7,0.7-1,1.5-1,2.4V462
		c0,0.9,0.3,1.7,1,2.4c0.7,0.7,1.6,1.2,2.7,1.7c1.1,0.4,2.3,0.8,3.7,1c1.4,0.2,2.8,0.3,4.2,0.3c1.5,0,2.9-0.1,4.3-0.4
		c1.4-0.2,2.6-0.6,3.7-1c1.1-0.4,2-1,2.6-1.7c0.7-0.7,1-1.4,1-2.3l6.8,1.9c0,1.1-0.2,2-0.7,2.9c-0.5,0.9-1.2,1.7-2.1,2.4
		c-0.9,0.7-1.9,1.3-3.1,1.8c-1.2,0.5-2.5,0.9-3.8,1.3c-1.4,0.3-2.8,0.6-4.3,0.8s-3,0.3-4.4,0.3s-3-0.1-4.4-0.3s-2.9-0.4-4.3-0.8
		c-1.4-0.3-2.6-0.8-3.8-1.3c-1.2-0.5-2.2-1.1-3.1-1.8c-0.9-0.7-1.6-1.5-2.1-2.4c-0.5-0.9-0.7-1.9-0.7-2.9v-15.3
		c0-1.2,0.2-2.3,0.7-3.3c0.5-1,1.2-1.8,2.1-2.6c0.9-0.8,1.9-1.4,3.1-1.9c1.2-0.5,2.5-1,3.8-1.3c1.4-0.4,2.8-0.6,4.3-0.8
		C431.6,438.5,433.1,438.4,434.6,438.4z"/>
</g>
<g>
	<path class="st2" d="M299.2,235.8c-15.9,5.2-19.4,18.4-13.5,28.2c11,18.5,43.7,16.4,47.9-3.2C336.7,246.2,319.9,230.9,299.2,235.8z
		"/>
	<path class="st2" d="M320.6,189.3c0.7,0.6,1.9,1.5,3.8,2.6c10.9,6.3,27.6,8.8,27,3.9c-0.6-4.7-17.4-11.4-28.6-11.4
		C316.6,184.8,318.8,187.6,320.6,189.3z"/>
	<path class="st2" d="M412.8,247.9c0.2-3.8-5.5-10.8-10.5-11.7c-2.1-0.1-3,1-2.4,3.4c-11.3-0.6-13.4-0.7-24.9-0.2
		c-5.5-6.6-13.1-10.4-20.5-10.1c-3.5,0.3-5.3,1.3-7.1,2.7c0,0,0.1,0.1,0.2,0.1c-6.5-3.4-14.8-7.3-24.9-10.9
		c-6.5-2.3-13-3.5-19.6-4.9c0.1-0.2,0.1-0.5,0.2-0.8c-0.2-7.3-9.8-12.5-21.4-11.5l-1.2,0.2c-2.9-3.1-7-7-10.1-9.9
		c7-3,6.2-6.4,1.9-8.2c-2.7-1.1-9.6-2.3-18.2-0.1c-8.7,2.6-8.1,6.3-5.5,8c2.4,1.7,8.2,3.1,16.6,1.7c3,2.9,6.8,6.9,9.6,10
		c-8.7,4.1-9,10.4-5.6,14.6c1.5,1.8,3.4,2.9,4.6,3.5c0,0,0,0,0,0c-8,10.9-14.6,22.5-20,34.9c0,0,0,0,0-0.1c-3.1,0-5,0.3-8,1.3
		c-9.2,3.6-14.2,11.3-13.2,20c-15.7,7.7-18.1,8.9-31.2,16.3c-2.2-1.9-4.9-2.1-7.9-0.5c-5.2,3.4-5.5,9.1-4.1,12.1
		c2.8,5.9,11,4.3,13.6-2.6c0.5-1.3,0.6-2.6,0.6-3c-1.9,1.1-4.5,2.6-6.5,3.8l6.5-3.8c14.6-8.1,17.3-9.5,31.2-16.3
		c0.2,0.3,0.5,0.7,0.7,1c6.4,8.1,21,9.3,30.3-1.3c14.5,6.5,27.4,11.6,45.9,18.7c0,0,0,0-0.1,0c-0.3,1.8-0.8,5.7,1.1,10.4
		c2.5,6.1,9.4,12.9,20.4,12.2c2,7.1,4.7,16.6,6.6,23.8c-9.3,5.4-10.7,15.9-7.9,23.3c5.1,13.8,21.7,17.1,28.3,1.9
		c5.2-11.9-0.8-27.1-14.3-26.9c-1.8-7.2-4.3-16.8-6.2-24c10.3-5.9,12.3-18.7,4.3-28.4c-0.3-0.3-0.8-0.8-1.1-1.1
		c-0.1,0.1-0.2,0.2-0.2,0.3c8.3-13.4,14.4-25.8,18.5-37.7c0,0.1-0.1,0.2-0.1,0.4c0.3,0.1,0.8,0.3,1.1,0.4c9.9,2.9,19-1.6,16.3-12.7
		l-0.4-1.1c12.9-0.4,14.9-0.5,25,0.3C407.8,250.6,412.7,251.3,412.8,247.9z M344.8,236.1c-0.9,3.3-0.3,6.8,1.7,10.4
		c2.7,4.8,6.7,7.7,8.1,8.7c-5.1,14.5-12.2,27.5-18,36.8c0.1-0.1,0.2-0.3,0.2-0.4c-4-1.6-7.5-1.9-11.6-1c-4.6,1.2-8.1,3.5-10.8,7.4
		c-20.5-8-32.4-12.8-45-18.4c2.6-8.1-0.6-15.5-8.2-19.2c-0.2-0.1-0.5-0.2-0.7-0.3c5.2-12.1,11.6-23.3,19.4-34.2
		c0.2,0,0.6,0.1,0.8,0.1c7,1.1,16.5-0.4,20.9-6.3C316.9,223.4,331.3,228.9,344.8,236.1z M329.3,303.7c-0.1,0-0.2-0.1-0.3-0.1
		c0,0,0,0,0,0C329.1,303.7,329.2,303.7,329.3,303.7z M251.6,271.4l-1.6,0.7C250.5,271.9,251.1,271.6,251.6,271.4z M265.1,277.7
		c-0.2-0.1-0.5-0.2-0.7-0.3C264.6,277.4,264.8,277.5,265.1,277.7z M262.9,276.7c-0.1-0.1-0.2-0.1-0.3-0.2
		C262.7,276.6,262.8,276.6,262.9,276.7z M283.7,216.2l0.7,0.1c0,0,0,0,0,0C284.2,216.3,283.9,216.2,283.7,216.2z M251.7,279.1
		l-0.9-0.4c1.5,0.7,3,1.4,4.4,2.1C254.1,280.2,252.9,279.7,251.7,279.1z"/>
	<path class="st2" d="M327.4,202.8c-4.7,0.8-3.8,3.9-1.7,5.9c4.7,4.4,14.2,4.7,14,0.5C339.5,206,333.3,202.2,327.4,202.8z"/>
	<path class="st2" d="M372.4,215.7c-0.1-1.9-4-4.9-7.3-5.1c-2.5,0.1-1.7,2.1-0.3,3.4C367.6,216.9,372.4,217.9,372.4,215.7z"/>
	<path class="st2" d="M297.6,192.3l0.3,0.2c2.7,1.7,8,1.4,7.8-0.3c-0.2-1.3-3.8-2.7-7.1-2.2C295.9,190.4,296.8,191.7,297.6,192.3z"
		/>
	<path class="st2" d="M303.5,346.9c-3.5,1.5-3.6,5-2.6,7c2,4,7.7,3.7,9-0.5C311.1,349.7,307.9,345.5,303.5,346.9z"/>
	<path class="st2" d="M233.8,319.4c-3.4,1.9-3.3,5.5-2.2,7.4c2.3,3.9,8,2.9,9.2-1.6C241.7,321.3,238.1,317.5,233.8,319.4z"/>
	<path class="st2" d="M273.1,314.2c-6,2.8-6.2,8.8-4.3,12.1c3.7,6.7,13.7,5.6,16-1.7C286.8,318.3,280.8,311.5,273.1,314.2z"/>
	<path class="st2" d="M253.3,346.1c-12.1,6.7-11,19.6-6.3,26.5c9.1,13.6,28.5,10.7,31.9-4.8C282,353.6,268.8,339.4,253.3,346.1z"/>
	<path class="st2" d="M405.3,304c-10,0.9-12.1,12.9-10.4,21.1c3.2,15.4,16.1,21.4,22.6,10.5C424.3,324.4,418.4,304.6,405.3,304z"/>
	<path class="st2" d="M218.9,228.4c4.4-8.2-1.3-14.2-11-11.5c-1.5,0.4-2.7,1-3.7,1.4c-9.8,5.2-12.7,13.1-11.7,17.1
		C195,244.6,212.7,239.8,218.9,228.4z"/>
	<path class="st2" d="M246.2,233.7c0.9-4.1-3.9-7.2-10.1-4.9c-5.5,2.5-6.2,6.6-4.9,8.8C234.1,242.6,244.9,239.8,246.2,233.7z"/>
	<path class="st2" d="M375.1,285.1c-5.3,1-5.8,6.5-4.5,10c2.7,7.2,11.2,8.8,13.6,2.7C386.3,292.5,381.7,284.6,375.1,285.1z"/>
	<path class="st2" d="M245.6,208c0.1-1.6-2.3-2.7-5.5-1.6c-2.9,1.2-3.3,3-2.6,3.9C239.2,212.4,245.4,210.7,245.6,208z"/>
	<path class="st2" d="M209.2,254.9c-0.1,0.1-0.3,0.1-0.4,0.2c-3.2,1.8-3.7,4.7-3,6.2c1.4,3.1,6.7,1.9,8.3-2
		C215.4,255.9,212.7,253.4,209.2,254.9z"/>
	<path class="st2" d="M399.6,276.9c1.6,4,5.9,5.8,7.1,2.9c1.2-2.8-1.6-8-5.2-8.2C398.8,271.8,398.8,274.8,399.6,276.9z"/>
	<path class="st2" d="M373.3,327.2c-3.1,0.7-3.7,4.1-3.1,6.3c1.1,4.1,5.6,5.2,7.5,1.8C379.5,331.9,377.4,326.7,373.3,327.2z"/>
</g>
</svg>
